<svg width="48" height="48" viewBox="0 0 48 48" fill="none" xmlns="http://www.w3.org/2000/svg">
<g clip-path="url(#clip0_1_191)">
<path d="M36.12 45.98H39.44C41.12 45.98 42.5 44.7 42.7 43.06L46 10.1H36V2H32.06V10.1H22.12L22.72 14.78C26.14 15.72 29.34 17.42 31.26 19.3C34.14 22.14 36.12 25.08 36.12 29.88V45.98ZM2 43.98V42H32.06V43.98C32.06 45.08 31.16 45.98 30.04 45.98H4.02C2.9 45.98 2 45.08 2 43.98ZM32.06 29.98C32.06 13.98 2 13.98 2 29.98H32.06ZM2.04 34H32.04V38H2.04V34Z" fill="#3A008C"/>
</g>
<defs>
<clipPath id="clip0_1_191">
<rect width="48" height="48" fill="white"/>
</clipPath>
</defs>
</svg>
