<svg width="40" height="28" viewBox="0 0 40 28" fill="none" xmlns="http://www.w3.org/2000/svg">
<path d="M34 4C34 1.8 32.2 0 30 0H24V4H30V9.3L23.04 18H16V8H8C3.58 8 0 11.58 0 16V22H4C4 25.32 6.68 28 10 28C13.32 28 16 25.32 16 22H24.96L34 10.7V4ZM10 24C8.9 24 8 23.1 8 22H12C12 23.1 11.1 24 10 24Z" fill="#3A008C"/>
<path d="M16 2H6V6H16V2Z" fill="#3A008C"/>
<path d="M34 16C30.68 16 28 18.68 28 22C28 25.32 30.68 28 34 28C37.32 28 40 25.32 40 22C40 18.68 37.32 16 34 16ZM34 24C32.9 24 32 23.1 32 22C32 20.9 32.9 20 34 20C35.1 20 36 20.9 36 22C36 23.1 35.1 24 34 24Z" fill="#3A008C"/>
</svg>
